<?xml version="1.0" encoding="utf-8"?>
<!-- Uploaded to: SVG Repo, www.svgrepo.com, Generator: SVG Repo Mixer Tools -->
<svg fill="#000000" width="800px" height="800px" viewBox="0 0 32 32" version="1.1" xmlns="http://www.w3.org/2000/svg">
<title>lightning-storm</title>
<path d="M23.901 6.164c0.593-1.664 0.654-3.411 0.245-5.060h-0v0c-0.042 1.519-0.508 3.075-1.385 4.482-2.338 3.755-7.035 5.419-11.348 4.363 0.325-0.144 0.639-0.302 0.938-0.474 2.437-1.404 3.574-3.46 3.389-5.721-0.461 1.361-1.537 2.578-3.134 3.498-2.998 1.727-7.364 1.977-11.698 1.057v2.332c2.561 0.51 5.122 0.597 7.399 0.215 0.261 0.178 0.534 0.347 0.821 0.502l-0.041 0.003 6.591 7.669-5.806 1.273 18.698 10.643-6.822-10.984 3.622-0.933-5.712-7.841c1.285-0.748 2.406-1.772 3.249-3.044 2.523 0.916 5.292 1.244 7.945 1.023v-2.442c-2.3 0.224-4.692 0.048-6.95-0.562z"></path>
</svg>